<?xml version="1.0" encoding="utf-8"?>
<!-- Generator: Adobe Illustrator 23.1.0, SVG Export Plug-In . SVG Version: 6.00 Build 0)  -->
<svg version="1.1" id="Слой_1" xmlns="http://www.w3.org/2000/svg" xmlns:xlink="http://www.w3.org/1999/xlink" x="0px" y="0px"
	 viewBox="0 0 208.7 296" style="enable-background:new 0 0 208.7 296;" xml:space="preserve">
<style type="text/css">
	.st0{fill:#DDB09B;}
	.st1{fill:#C9C8C8;}
	.st2{fill:#291D11;}
	.st3{fill:#FFFFFF;}
	.st4{fill:#A14944;}
	.st5{fill:#AFAFAF;}
	.st6{fill:#2E3E50;}
	.st7{fill:#142736;}
	.st8{fill:#170800;}
	.st9{fill:#250F00;}
</style>
<g>
	<g>
		<rect x="86.1" y="213.2" class="st0" width="39.1" height="20.5"/>
		<path class="st1" d="M97,229c6.3-0.2,12.4-2,17.2-4.8c3.9-2.3,7.1-5,9.5-8.1c0.5-0.6,1-1.3,1.5-2.1v-0.7H86.1v15.4
			C89.8,228.9,93.4,229.1,97,229z"/>
	</g>
	<path class="st0" d="M105.7,97.9L105.7,97.9C105.7,97.9,105.7,97.9,105.7,97.9C105.6,97.9,105.6,97.9,105.7,97.9L105.7,97.9
		c-25,0.7-44,11-43.9,46.3c0.1,21,2,27.1,8.1,51.1c4.2,16.5,26.7,25.3,35.3,25.8c0.2,0,0.4,0,0.6-0.1c0.2,0,0.4,0,0.6,0.1
		c8.6-0.6,31.1-9.3,35.3-25.8c6.1-23.9,8-30.1,8.1-51.1C149.7,108.9,130.6,98.6,105.7,97.9z"/>
	<path class="st0" d="M144.8,158.7l-2.7,20.9c10.7,4.7,12.4-19.9,12.4-19.9C152,153.7,144.8,158.7,144.8,158.7z"/>
	<path class="st0" d="M55.5,159.8c0,0,1.7,24.6,12.4,19.9l-2.7-20.9C65.2,158.7,58,153.7,55.5,159.8z"/>
	<path class="st2" d="M142.6,130.9"/>
	<path class="st0" d="M125.5,233.8l52.7,13.7c0,0,18,2.8,22.6,18.9l7.9,29.3H106.2h-0.9H2.7l7.9-29.3c4.6-16.2,22.6-18.9,22.6-18.9
		l52.6-13.7H125.5z"/>
	<path class="st3" d="M2.7,295.7l7.9-29.3c4.6-16.2,22.6-18.9,22.6-18.9l52.6-13.7h39.7l52.7,13.7c0,0,18,2.8,22.6,18.9l7.9,29.3"/>
	<g>
		<polygon class="st4" points="109.1,233.8 105.8,233.8 105.7,233.8 102.3,233.8 92.7,249 101.3,258.7 105.7,258.7 105.8,258.7 
			110.1,258.7 118.8,249 		"/>
		<path class="st5" d="M110.5,256.9c-5.7-6-8-15-6.6-23.1h-1.6L92.7,249l8.6,9.7h8.8l1.1-1.2C111,257.3,110.7,257.1,110.5,256.9z"/>
	</g>
	<g>
		<polygon class="st5" points="125.2,223.5 105.6,233.8 118.5,253.3 142.1,239.1 		"/>
		<polygon class="st3" points="125.2,223.5 105.6,233.8 118.8,250.7 140.8,238 		"/>
	</g>
	<g>
		<polygon class="st5" points="86,223.5 105.6,233.8 92.7,253.3 69.2,239.1 		"/>
		<polygon class="st3" points="86,223.5 105.7,233.8 92.5,250.7 70.5,238 		"/>
	</g>
	<path class="st6" d="M70.7,237.7l-37.6,9.8c0,0-18,2.8-22.6,18.9l-7.9,29.3h206l-7.9-29.3c-4.6-16.2-22.6-18.9-22.6-18.9
		l-39.3-11.3l-33.4,58.1L70.7,237.7z"/>
	<polygon class="st4" points="101.2,258.7 96.5,279.5 105.6,294.3 114.1,279.5 110,258.7 	"/>
	<polygon class="st7" points="70.7,237.7 52.9,242.4 63,246.2 56.8,253.3 92.7,295.7 106.6,295.7 	"/>
	<polygon class="st7" points="138.9,236.2 158.5,241.8 148.5,246.2 154.7,253.3 118.8,295.7 104.8,295.7 	"/>
	<path class="st8" d="M65.8,161.8l2.2,26.5c-11.6-31.2-4.9-71.9-4.9-71.9c3.7-15,7.1-17.6,13.1-20.7c6-3.1,3.7-2.6,13.1-4.8
		c9.4-2.3,0,0,12.7-3.1c12.7-3.1,23.2,4,23.2,4c8.7,5.1,14.1,7.7,14.1,7.7c19,14.8,10.3,55.7,10.3,55.7c0,10.8-7,36.1-7,36.1
		l2.6-34.3c0-47.4-24.2-43.2-24.2-43.2c-12.7,2.5-28.4,0-28.4,0s-29-8.9-26.9,47.7"/>
	<path class="st8" d="M67.3,180.2c0,0,2.7,21.2,23.9,30.4c0,0,5.1,3.1,13.6,2.6v7.9c0,0-10,0.2-24.4-9.9
		C80.5,211.2,65.8,202.4,67.3,180.2z"/>
	<path class="st8" d="M143.8,180.2c0,0-2.9,21.2-25.1,30.4c0,0-5.3,3.1-14.3,2.6v7.9c0,0,10.5,0.2,25.7-9.9
		C130,211.2,145.4,202.4,143.8,180.2z"/>
	<path class="st8" d="M65.8,181.5c0,0,9.5,21.3,21.6,19.2c0,0,10.7-6.8,17.5-3c0,0,10.3-3.8,18.3,3c0,0,11.6-2.1,20-17.7
		c0,0-2.4,30.2-37.6,32.7C105.6,215.8,72.2,215.8,65.8,181.5z"/>
	<path class="st0" d="M105.8,206.8c7.1-0.6,11.3-3.9,11.3-3.9c-7.4-3.3-10.7-1.8-11.4-1.4c-0.7-0.4-4-2-11.4,1.4
		c0,0,4.1,3.3,11.3,3.9v0c0.1,0,0.1,0,0.2,0C105.7,206.8,105.8,206.8,105.8,206.8L105.8,206.8z"/>
	<path class="st9" d="M68.3,115.2c0.1,0.6-0.2,0.9,0.3,1.3c0.6-2.5,0.8-4.9,1.9-7.2c1.5,1,4.9,6.8,4.7,0.9c1.6-0.2,3.4,1.6,4.6,1.2
		c1.9-0.6,2.1-3.6,3.4-5.2c3,2.2,3.4,3.9,6.4,2.2c1-0.6,0.7-2.6,2.1-3c1.7-0.5,2.5,1.5,3.8,1.7c1,0.1,5-0.4,5.9-0.9
		c1.5-0.9,2.7-5.9,5.2-2c3.5-2.6,4,3.1,7.2,3.4c0-0.5,0.1-1.1,0.1-1.6c2,1.4,2.4-0.6,3.7-0.4c2.6,0.3,3.1,1.6,5.2,2.4
		c1.8,0.7,6.7,2.1,8.8,1.7c0.1-0.3,0.1-0.5,0.1-0.8c2.6,2.4,4.6,5.8,7.6,7.7c0.3-0.2,0.2-0.6,0.4-0.8c1.7,2.3,2.3,5.2,5,6.6
		c0.2-5.6-7.5-12.3-10.2-15.8c0.2,0.4,0.3,0.9,0.6,1.3c-2.8-2.8-6.4-5.3-10.3-7.2c0.2,0.6,0.1,1.4,0.3,2c-1.1-2.6-9.6-5-12.2-5.8
		c0.1,0.6-0.2,1.4-0.1,2.1c-0.2-0.1-2.3-1.5-2.5-1.4c0.8-0.5-3.3,1.6-1.7,1.4c0,0-1,1.1-1.7,1.2c-0.7,0.1-3-1.8-3.8-2
		c0,0.5-0.1,1.1-0.1,1.6c-0.6-0.4-2.2-0.9-2.8-1.6c0,0.6-0.2,1.4-0.2,2.1c-1.1-1.2-2.7-2.5-4.6-2.9c0.2,1-0.1,1.8,0.4,2.8
		c-0.9-1.7-2.2-2.5-3.4-1.2c-1.7-1.7-5.5-4.4-6-0.4c-0.5,0-0.7-0.4-1.2-0.3c-1.6,2.1-3.7,0.6-5.6,0c0.2,2.3,0,5.2-2.6,4.2
		c-0.2,0.5-0.3,1.1-0.5,1.6c-0.2-0.1-0.9-0.6-1.1-0.7c-1.4,1.4-4,1.4-6,2.5c0.1,3.4-0.9,6.2-0.9,9.7"/>
</g>
</svg>
