<?xml version="1.0" encoding="utf-8"?>
<!-- Generator: Adobe Illustrator 23.1.0, SVG Export Plug-In . SVG Version: 6.00 Build 0)  -->
<svg version="1.1" id="Слой_1" xmlns="http://www.w3.org/2000/svg" xmlns:xlink="http://www.w3.org/1999/xlink" x="0px" y="0px"
	 viewBox="0 0 208.7 296" style="enable-background:new 0 0 208.7 296;" xml:space="preserve">
<style type="text/css">
	.st0{fill:#73503B;}
	.st1{fill:#C9C8C8;}
	.st2{fill:#644832;}
	.st3{fill:#DDB09B;}
	.st4{fill:#FFFFFF;}
	.st5{fill:#683D3D;}
	.st6{fill:#AFAFAF;}
	.st7{fill:#181D25;}
	.st8{fill:#1F1300;}
	.st9{fill:#251800;}
</style>
<g>
	<path class="st0" d="M144.1,154.3l-2.8,21.4c10.8,4.8,12.5-20.3,12.5-20.3C151.3,149.1,144.1,154.3,144.1,154.3z"/>
	<path class="st0" d="M53.8,155.4c0,0,1.7,25.1,12.5,20.3l-2.8-21.4C63.6,154.3,56.3,149.1,53.8,155.4z"/>
	<g>
		<rect x="84.7" y="210.1" class="st0" width="39.5" height="21"/>
		<path class="st1" d="M95.8,226.2c6.4-0.2,12.5-2.1,17.4-4.9c4-2.3,7.2-5.1,9.6-8.3c0.5-0.6,1-1.4,1.5-2.1v-0.7H84.7v15.7
			C88.4,226.2,92.1,226.3,95.8,226.2z"/>
	</g>
	<path class="st2" d="M83.9,210.8c7.6,4.8,15.4,7.1,19.9,7.4c0.2,0,0.4,0,0.6-0.1c0.2,0,0.4,0,0.6,0.1c4.5-0.3,12.9-2.9,20.5-7.7
		C125.5,210.4,108.1,218.8,83.9,210.8z"/>
	<path class="st3" d="M124.6,231.1l53.3,14c0,0,18.2,2.8,22.8,19.4l8,30H105h-0.9H0.4l8-30c4.6-16.5,22.8-19.4,22.8-19.4l53.2-14
		H124.6z"/>
	<path class="st4" d="M0.4,294.5l8-30c4.6-16.5,22.8-19.4,22.8-19.4l53.2-14h40.2l53.3,14c0,0,18.2,2.8,22.8,19.4l8,30"/>
	<g>
		<polygon class="st5" points="108,231.1 104.6,231.1 104.5,231.1 101.1,231.1 91.4,246.7 100.1,256.6 104.5,256.6 104.6,256.6 
			109,256.6 117.8,246.7 		"/>
		<path class="st6" d="M109.4,254.7c-5.7-6.1-8.1-15.3-6.7-23.6h-1.6l-9.8,15.6l8.7,10h8.9l1.1-1.2
			C109.9,255.2,109.6,255,109.4,254.7z"/>
	</g>
	<g>
		<polygon class="st6" points="124.3,221.3 104.4,231.8 117.5,251.8 141.3,237.3 		"/>
		<polygon class="st4" points="124.3,221.3 104.4,231.8 117.8,249.1 140,236.1 		"/>
	</g>
	<g>
		<polygon class="st6" points="84.6,220.6 104.4,231.1 91.4,251.1 67.6,236.6 		"/>
		<polygon class="st4" points="84.6,220.6 104.5,231.1 91.2,248.4 68.9,235.4 		"/>
	</g>
	<path class="st7" d="M69.2,235.2l-38,10c0,0-18.2,2.8-22.8,19.4l-8,30h208.3l-8-30c-4.6-16.5-22.8-19.4-22.8-19.4l-39.8-11.5
		L104.4,293L69.2,235.2z"/>
	<polygon class="st5" points="99.9,256.6 95.2,277.9 104.4,293 113,277.9 108.9,256.6 	"/>
	<polygon points="69.2,235.2 51.2,239.9 61.3,243.9 55.1,251.1 91.4,294.5 105.5,294.5 	"/>
	<polygon points="138.1,233.6 157.9,239.4 147.8,243.9 154.1,251.1 117.8,294.5 103.7,294.5 	"/>
	<path class="st0" d="M104.5,92.1L104.5,92.1C104.5,92.1,104.5,92.1,104.5,92.1C104.5,92.1,104.5,92.1,104.5,92.1L104.5,92.1
		c-25.3,0.7-44.5,11.2-44.4,47.4c0.1,21.4,2,27.8,8.2,52.3c4.3,16.9,27,25.9,35.7,26.4c0.2,0,0.4,0,0.6-0.1c0.2,0,0.4,0,0.6,0.1
		c8.7-0.6,31.4-9.5,35.7-26.4c6.2-24.5,8.1-30.8,8.2-52.3C149,103.3,129.7,92.8,104.5,92.1z"/>
	<path class="st8" d="M156.3,128.6c0-2.1-1.3-3.9-3.2-4.6c1.3-0.9,2.1-2.4,2.1-4.1c0-1-0.3-1.9-0.8-2.6c1.1-0.9,1.8-2.3,1.8-3.8
		c0-2.7-2.1-4.8-4.7-4.9c0.5-0.8,0.8-1.7,0.8-2.7c0-2.7-2.1-4.9-4.8-4.9c0.8-0.9,1.3-2,1.3-3.3c0-2.7-2.2-4.9-4.8-4.9
		c-1.1,0-2.1,0.4-2.9,1c0.1-0.3,0.1-0.6,0.1-1c0-2.7-2.2-4.9-4.8-4.9c-1,0-1.9,0.3-2.6,0.8c-0.3-2.4-2.3-4.3-4.8-4.3
		c-0.9,0-1.7,0.3-2.5,0.7c-0.8-1.7-2.4-2.9-4.4-2.9c-2,0-3.7,1.3-4.5,3c-0.4-2.2-2.4-3.9-4.7-3.9c-2.3,0-4.1,1.6-4.7,3.7
		c-0.5-2.1-2.4-3.7-4.7-3.7c-1.8,0-3.4,1-4.2,2.6c-0.8-1.5-2.4-2.6-4.2-2.6c-2.6,0-4.7,2.1-4.8,4.7c-0.9-1-2.2-1.7-3.6-1.7
		c-2.2,0-4.1,1.5-4.6,3.6C81.8,88,81.5,88,81.2,88c-2.7,0-4.8,2.2-4.8,4.9c0,0.1,0,0.2,0,0.3c-0.5-0.2-1-0.3-1.5-0.3
		c-2.7,0-4.8,2.2-4.8,4.9c0,1.1,0.4,2.2,1,3c-0.1,0.1-0.1,0.2-0.2,0.4c-0.6-0.3-1.2-0.4-1.9-0.4c-2.7,0-4.8,2.2-4.8,4.9
		c-2.7,0-4.8,2.2-4.8,4.9c0,1.2,0.4,2.3,1.1,3.1c-2.1,0.5-3.7,2.4-3.7,4.8c0,1.5,0.7,2.9,1.8,3.8c0,0.2,0,0.3-0.1,0.5
		c-1.1,0.9-1.8,2.2-1.8,3.8c0,1.5,0.7,2.8,1.7,3.7c0,0.4,0,0.8,0.1,1.2c-1.1,0.9-1.8,2.3-1.8,3.8c0,1.4,0.6,2.7,1.6,3.6
		c-1,0.9-1.6,2.2-1.6,3.6c0,2.1,1.3,3.9,3.1,4.6c0.2,2.3,0.5,4.8,0.8,7.4l0.8,5.1c0.8,0.4,1.5,1,2.2,1.6c0.8,0.8,1.7,1.5,2.5,2.2
		l-1.6-16.5l0.5-1.2c0.7-0.8,1.1-1.8,1.2-2.9l3.9-9.3l1.1-10.9l0.4-1.5c4-14.2,35-12.5,35-12.5c36.9,0.8,31.9,26.7,31.9,26.7
		l5.4,11.6c0,0,0,0.1,0,0.2l-1.7,17.4c0.3-0.2,0.7-0.5,1-0.7c0.1-0.1,0.2-0.2,0.3-0.2c0,0,0.1-0.1,0.2-0.1c0.5-0.4,1-0.8,1.4-1.3
		c0.6-0.6,1.2-1.2,1.8-1.8l1-5.9c0.3-0.7,0.6-1.4,0.9-2.2c2.7,0,4.8-2.2,4.8-4.9c0-0.4-0.1-0.8-0.1-1.2c1-0.9,1.7-2.2,1.7-3.7
		c0-1.4-0.6-2.7-1.6-3.6c1-0.9,1.6-2.2,1.6-3.6c0-1-0.3-2-0.9-2.8C155.6,131.5,156.3,130.1,156.3,128.6z"/>
	<path class="st9" d="M73.9,104.7c0.8,1.2,2.5,2.8,3,3.7c0.2-1.7-0.8-3.2-0.6-4.8c2.5,1.3,5.6,1.6,8.1,2.6c-0.1-1.4-0.4-3.2-0.8-4.5
		c4.2-0.4,6.9,3.3,10.7,3.4c0.1-2.2-0.9-3.9-1-5.8c4.1-0.2,7.8,3.6,11.8,3.2c-0.1-1.4-0.6-3.3-1-4.7c3.8-0.2,9.7,4.6,12.6,6.9
		c0.1-1.8-0.1-3.7,0.3-5.6c5.3,2,9.6,6.2,14.4,9.1c0.2-1.7-0.4-3.2-0.4-4.8c5.6,2.8,8.7,9.7,12.7,14.3c0-1.3-1-2.3-1-3.6
		c1,1.4,2,2.9,3,4.3c-2.3-3.1-4-7.4-5.4-11c0.6,1.3,1.1,2.6,1.8,3.8c-2.3-3.3-6.2-6.6-7.2-10.6c-0.3,0.9,0.3,2,0.9,2.8
		c-1.8-2.4-5.8-6.1-8.6-7.2c0.2,1.4,1.6,2.3,1.9,3.7c-2.1-1.2-4.4-4.1-6.8-4.5c0.1,0.4,0,1.1,0.2,1.5c-2.7,0.5-6.1-2.1-8.3-3.4
		c0,0.9,0.4,1.7,0.6,2.6c-2-0.5-4.1-2.3-6.2-2.6c-0.3,0.7-0.2,1.4,0,2.1c-3,0.1-5.9-1.1-8.8-0.8c0.1,0.3,0,1.2,0.1,1.4
		c-1.5-0.8-5.1-1.9-6.7-1.2c-1.5,0.6-1.1,0.6-1,2.4c-2.5,0.1-5,0-7.5,0c-0.1,0.7-0.3,1.4-0.3,2.1c-1.8,0.2-3.5-0.3-5.3-0.2
		c0,0.4-0.3,0.8-0.3,1.2c-1.8,0.1-4.8-0.6-4.3,2.2c-0.2-0.1-0.5-0.1-0.8-0.2c-0.2,0.9,0,1.7,0.8,1.9"/>
	<path class="st9" d="M68.1,105.6c0.3,3.1,2.1,5.4,1.9,8.7c-0.1,2.7-1,7.3-3.2,9c0,7.1,0.4,18.3-4.4,24.1c-0.8-2.2-1-5.1-2.3-7
		c0.7,0.4,1.5,0.9,2.3,1c-0.4-3.1-2.4-7.2-1.9-10.4c1.1,1,2.1,2,3.2,2.9c0.2-2-1.6-3.7-2.1-5.6c-0.5-2-1.6-6.6-1.3-8.7
		c1.4,0.8,2.6,2.4,3.8,3.5c-0.3-2.1-0.2-4.5-0.1-6.7c0.9,0.2,1.6,0.8,2.5,1c0.3-1.6-0.9-2.9-1.3-4.3c-0.3-1.2-0.2-2.4-0.2-3.6
		c1,0.5,1.9,1.2,2.7,1.9c-0.6-1.2-1.6-4.3-0.4-5.4"/>
</g>
</svg>
