<?xml version="1.0" encoding="utf-8"?>
<!-- Generator: Adobe Illustrator 23.1.0, SVG Export Plug-In . SVG Version: 6.00 Build 0)  -->
<svg version="1.1" id="Слой_1" xmlns="http://www.w3.org/2000/svg" xmlns:xlink="http://www.w3.org/1999/xlink" x="0px" y="0px"
	 viewBox="0 0 208.7 296" style="enable-background:new 0 0 208.7 296;" xml:space="preserve">
<style type="text/css">
	.st0{fill:#DDB09B;}
	.st1{fill:#C9C8C8;}
	.st2{fill:#291D11;}
	.st3{fill:#FFFFFF;}
	.st4{fill:#6BBBC2;}
	.st5{fill:#AFAFAF;}
	.st6{fill:#2E3E50;}
	.st7{fill:#142736;}
	.st8{fill:#644832;}
	.st9{fill:#70513A;}
</style>
<g>
	<rect x="86.4" y="208.5" class="st0" width="41.3" height="21.7"/>
	<path class="st1" d="M98,225.1c6.6-0.2,13.1-2.1,18.2-5.1c4.1-2.4,7.5-5.3,10-8.6c0.5-0.7,1-1.4,1.5-2.2v-0.8H86.4v16.3
		C90.3,225.1,94.2,225.2,98,225.1z"/>
	<path class="st0" d="M107.1,89.2L107.1,89.2C107.1,89.2,107.1,89.2,107.1,89.2C107.1,89.2,107.1,89.2,107.1,89.2L107.1,89.2
		c-26.4,0.7-46.5,11.6-46.4,49c0.1,22.2,2.1,28.7,8.5,54c4.5,17.5,28.2,26.7,37.3,27.3c0.2,0,0.4,0,0.6-0.1c0.2,0,0.4,0,0.6,0.1
		c9.1-0.6,32.8-9.8,37.3-27.3c6.5-25.3,8.5-31.8,8.5-54C153.6,100.8,133.5,89.9,107.1,89.2z"/>
	<path class="st0" d="M148.5,153.5l-2.9,22.1c11.3,5,13.1-21,13.1-21C156,148.1,148.5,153.5,148.5,153.5z"/>
	<path class="st0" d="M54.1,154.6c0,0,1.8,26,13.1,21l-2.9-22.1C64.3,153.5,56.7,148.1,54.1,154.6z"/>
	<path class="st2" d="M146.1,124.1"/>
	<path class="st0" d="M128.1,230.2l55.8,14.5c0,0,19,2.9,23.9,20l8.3,31H107.6h-1H-1.7l8.3-31c4.9-17.1,23.9-20,23.9-20l55.6-14.5
		H128.1z"/>
	<path class="st3" d="M-1.7,295.7l8.3-31c4.9-17.1,23.9-20,23.9-20l55.6-14.5h42l55.8,14.5c0,0,19,2.9,23.9,20l8.3,31"/>
	<polygon class="st4" points="110.7,230.2 107.2,230.2 107.1,230.2 103.6,230.2 93.3,246.3 102.5,256.6 107.1,256.6 107.2,256.6 
		111.8,256.6 120.9,246.3 	"/>
	<path class="st4" d="M112.2,254.6c-6-6.3-8.5-15.8-7-24.4h-1.7l-10.2,16.1l9.1,10.3h9.3l1.1-1.3
		C112.7,255.1,112.4,254.8,112.2,254.6z"/>
	<polygon class="st5" points="127.8,219.3 107,230.2 120.7,250.8 145.6,235.8 	"/>
	<polygon class="st3" points="127.8,219.3 107,230.2 120.9,248.1 144.2,234.6 	"/>
	<polygon class="st5" points="86.3,219.3 107,230.2 93.4,250.8 68.5,235.8 	"/>
	<polygon class="st3" points="86.3,219.3 107.1,230.2 93.2,248.1 69.9,234.6 	"/>
	<path class="st6" d="M70.2,234.4l-39.7,10.3c0,0-19,2.9-23.9,20l-8.3,31H216l-8.3-31c-4.9-17.1-23.9-20-23.9-20l-41.6-11.9
		L107,294.2L70.2,234.4z"/>
	<polygon class="st4" points="102.3,256.6 97.3,278.5 107,294.2 116,278.5 111.7,256.6 	"/>
	<polygon class="st7" points="70.2,234.4 51.4,239.3 62,243.4 55.4,250.8 93.3,295.7 108.1,295.7 	"/>
	<polygon class="st7" points="142.3,232.8 162.9,238.7 152.3,243.4 158.9,250.8 121,295.7 106.2,295.7 	"/>
	<path class="st8" d="M64.3,154.7l2.3,28c-12.2-32.9-5.2-76-5.2-76c3.9-15.9,7.5-18.6,13.8-21.9c6.3-3.3,3.9-2.7,13.8-5.1
		c9.9-2.4,0,0,13.4-3.3c13.4-3.3,24.6,4.2,24.6,4.2c9.2,5.4,14.9,8.1,14.9,8.1c20.1,15.6,10.9,58.8,10.9,58.8
		c0.7,17.9-6.2,38.1-6.2,38.1l1.6-36.3c0-50.1-25.6-45.6-25.6-45.6c-13.5,2.7-30,0-30,0S62,94.3,64.3,154.1"/>
	<path class="st9" d="M67.8,105.5c0.1,0.6-0.2,1,0.3,1.3c0.6-2.6,0.9-5.1,2-7.6c1.6,1.1,5.2,7.2,4.9,0.9c1.7-0.2,3.6,1.7,4.9,1.3
		c2-0.6,2.2-3.8,3.6-5.5c3.2,2.3,3.6,4.1,6.8,2.3c1.1-0.6,0.7-2.8,2.2-3.2c1.8-0.5,2.7,1.6,4.1,1.8c1.1,0.1,5.3-0.4,6.2-1
		c1.6-1,2.9-6.2,5.5-2.2c3.7-2.7,4.3,3.3,7.6,3.6c0-0.5,0.1-1.1,0.1-1.7c2.1,1.5,2.5-0.6,4-0.4c2.8,0.3,3.3,1.7,5.5,2.6
		c1.9,0.7,7.1,2.3,9.3,1.8c0.1-0.3,0.1-0.5,0.1-0.8c2.8,2.5,4.9,6.1,8.1,8.2c0.3-0.3,0.2-0.7,0.4-0.8c1.8,2.5,2.5,5.5,5.3,7
		c0.2-5.9-7.9-13-10.7-16.7c0.2,0.4,0.4,0.9,0.6,1.4c-3-2.9-6.8-5.6-10.9-7.6c0.2,0.6,0.1,1.5,0.3,2.1c-1.2-2.8-10.1-5.3-12.9-6.1
		c0.1,0.7-0.2,1.5-0.1,2.2c-0.2-0.1-2.4-1.6-2.6-1.5c0.8-0.5-3.5,1.7-1.8,1.5c0,0-1.1,1.2-1.8,1.3c-0.8,0.1-3.2-1.9-4-2.1
		c0,0.5-0.1,1.1-0.1,1.7c-0.6-0.5-2.3-0.9-3-1.7c0,0.7-0.2,1.5-0.2,2.2c-1.2-1.2-2.9-2.7-4.8-3.1c0.2,1-0.1,1.9,0.4,3
		c-0.9-1.8-2.3-2.7-3.6-1.3c-1.8-1.8-5.8-4.6-6.3-0.5c-0.5,0-0.8-0.4-1.3-0.3c-1.7,2.2-3.9,0.6-5.9,0c0.2,2.4,0,5.5-2.8,4.5
		c-0.2,0.5-0.3,1.1-0.5,1.7c-0.2-0.1-0.9-0.7-1.2-0.7c-1.5,1.5-4.2,1.4-6.3,2.6c0.1,3.6-1,6.6-1,10.3"/>
	<path d="M155.8,145l-8.4-2.6l0,0.2c-18.7-5.6-35.3,0.1-35.3,0.1c0,0,0,0,0,0c-4.8,1.1-9.3,0.6-11.9,0.1c-0.5-0.2-1.4-0.4-2.5-0.7
		c0,0,0,0,0,0h0c-5.5-1.3-17.6-3.2-31,0.5l0-0.2l-8.3,1.6v7.3l7.1,2c1.2,7.7,5.8,16.7,20.8,15.1c0,0,15.2-1.6,15.7-17
		c0,0,0.1-1.1,0-2.6c4.1-3.9,7.6-1.1,9,0.4c0,1.1,0,1.8,0,1.8c0.5,15.4,15.7,17,15.7,17c14.6,1.5,19.3-6.9,20.7-14.5l8.2-1.4
		L155.8,145z M98.5,152c-0.4,12.6-12.9,13.9-12.9,13.9c-21,2.2-17-20.8-17-20.8c15.4-4.6,29,0,29,0C98.8,148,98.5,152,98.5,152z
		 M127.2,165.5c0,0-12.4-1.3-12.9-13.9c0,0-0.3-4,0.9-6.9c0,0,13.6-4.7,29,0C144.2,144.7,148.2,167.7,127.2,165.5z"/>
</g>
</svg>
