<?xml version="1.0" encoding="utf-8"?>
<!-- Generator: Adobe Illustrator 23.1.0, SVG Export Plug-In . SVG Version: 6.00 Build 0)  -->
<svg version="1.1" id="Слой_1" xmlns="http://www.w3.org/2000/svg" xmlns:xlink="http://www.w3.org/1999/xlink" x="0px" y="0px"
	 viewBox="0 0 208.7 296" style="enable-background:new 0 0 208.7 296;" xml:space="preserve">
<style type="text/css">
	.st0{fill:#DDB09B;}
	.st1{fill:#C9C8C8;}
	.st2{fill:#170800;}
	.st3{fill:#291D11;}
	.st4{fill:#FFFFFF;}
	.st5{fill:#E18C44;}
	.st6{fill:#AFAFAF;}
	.st7{fill:#181D25;}
	.st8{fill:#200B00;}
</style>
<g>
	<g>
		<rect x="85" y="210.5" class="st0" width="40.2" height="21.2"/>
		<path class="st1" d="M96.2,226.7c6.5-0.2,12.8-2.1,17.7-5c4-2.3,7.3-5.1,9.7-8.4c0.5-0.6,1-1.4,1.5-2.1v-0.7H85v15.8
			C88.7,226.7,92.5,226.8,96.2,226.7z"/>
	</g>
	<path class="st0" d="M105.1,91.6L105.1,91.6C105.1,91.6,105.1,91.6,105.1,91.6C105.1,91.6,105.1,91.6,105.1,91.6L105.1,91.6
		c-25.7,0.7-45.4,11.3-45.3,47.7c0.1,21.6,2,28,8.3,52.6c4.4,17.1,27.5,26,36.4,26.6c0.2,0,0.4,0,0.6-0.1c0.2,0,0.4,0,0.6,0.1
		c8.8-0.6,32-9.6,36.4-26.6c6.3-24.6,8.3-31,8.3-52.6C150.5,102.9,130.8,92.4,105.1,91.6z"/>
	<path class="st2" d="M91.4,214.9c5.2,2.3,10,3.5,13.1,3.7c0.2,0,0.4,0,0.6-0.1c0.2,0,0.4,0,0.6,0.1c2.9-0.2,7.3-1.3,12-3.2l4.6-6.4
		c0,0-14.2,15.9-34.3,0L91.4,214.9"/>
	<path class="st0" d="M145.4,154.3l-2.8,21.5c11,4.9,12.8-20.5,12.8-20.5C152.9,149.1,145.4,154.3,145.4,154.3z"/>
	<path class="st0" d="M53.5,155.4c0,0,1.7,25.3,12.8,20.5l-2.8-21.5C63.4,154.3,56,149.1,53.5,155.4z"/>
	<path class="st3" d="M143.2,125.7"/>
	<path class="st0" d="M125.6,231.6l54.4,14.1c0,0,18.5,2.8,23.3,19.5l8.1,30.2H105.6h-0.9H-1l8.1-30.2c4.7-16.7,23.3-19.5,23.3-19.5
		l54.2-14.1H125.6z"/>
	<path class="st4" d="M-1,295.5l8.1-30.2c4.7-16.7,23.3-19.5,23.3-19.5l54.2-14.1h41l54.4,14.1c0,0,18.5,2.8,23.3,19.5l8.1,30.2"/>
	<g>
		<polygon class="st5" points="108.7,231.6 105.2,231.6 105.1,231.6 101.7,231.6 91.7,247.3 100.6,257.4 105.1,257.4 105.2,257.4 
			109.7,257.4 118.6,247.3 		"/>
		<path class="st6" d="M110.1,255.4c-5.8-6.1-8.3-15.4-6.8-23.8h-1.7l-10,15.7l8.9,10h9.1l1.1-1.2
			C110.6,255.9,110.4,255.7,110.1,255.4z"/>
	</g>
	<g>
		<polygon class="st6" points="125.3,221.7 105,232.3 118.4,252.4 142.6,237.8 		"/>
		<polygon class="st4" points="125.3,221.7 105,232.3 118.6,249.8 141.3,236.6 		"/>
	</g>
	<g>
		<polygon class="st6" points="84.9,221.1 105,231.6 91.8,251.8 67.5,237.2 		"/>
		<polygon class="st4" points="84.9,221.1 105.2,231.6 91.6,249.1 68.9,235.9 		"/>
	</g>
	<path class="st7" d="M69.1,235.7l-38.7,10.1c0,0-18.5,2.8-23.3,19.5L-1,295.5h212.3l-8.1-30.2c-4.7-16.7-23.3-19.5-23.3-19.5
		l-40.5-11.6L105,294L69.1,235.7z"/>
	<polygon class="st5" points="100.5,257.4 95.6,278.7 105,294 113.8,278.7 109.6,257.4 	"/>
	<polygon points="69.1,235.7 50.8,240.5 61.1,244.5 54.8,251.8 91.7,295.5 106.1,295.5 	"/>
	<polygon points="139.4,234.2 159.6,239.9 149.2,244.5 155.6,251.8 118.6,295.5 104.3,295.5 	"/>
	<path class="st2" d="M64.1,157.5l2.3,27.3c-11.9-32.1-5-74.1-5-74.1c1.3-10.9,13.3-14.3,13.3-14.3c2.3-13.5,26.6-17,26.6-17
		c66.7-2.3,49.1,71.1,49.1,71.1c0,11.1-7.2,37.2-7.2,37.2l2.7-35.4c0-6.7-6.4-13.9-6-18.8c2.8-29.2-18.9-25.7-18.9-25.7
		c-13.1,2.6-29.2,0-29.2,0S66.2,99.2,68.9,135C68.9,135,71,138.8,64.1,157.5z"/>
	<path class="st0" d="M105.3,203.8c7.3-0.7,11.6-4.1,11.6-4.1c-7.7-3.4-11-1.9-11.8-1.4c-0.7-0.5-4.1-2-11.8,1.4
		c0,0,4.3,3.4,11.6,4.1v0c0.1,0,0.1,0,0.2,0C105.2,203.9,105.2,203.9,105.3,203.8L105.3,203.8z"/>
	<path class="st2" d="M124.1,196.9"/>
	<path class="st2" d="M101.3,188.5c-3-0.9-7.8,0.2-10.5,1.7c-3.2,1.8-5.5,5-6.5,8.4c-1.8,5.7,0.1,11.2,4.8,14.7
		c0.8,0.6,2.2,1.8,3.2,2.1c-2.7-3.1-4.7-7.2-4.7-11.4c0-6.3,4.5-11.2,10.8-11.7c1.7-0.1,5.2,0.2,6.3,1.6
		C105.2,191.2,103.7,189.1,101.3,188.5z"/>
	<path class="st2" d="M108.6,188.5c3-0.9,7.8,0.2,10.5,1.7c3.2,1.8,5.5,5,6.5,8.4c1.8,5.7-0.1,11.2-4.8,14.7
		c-0.8,0.6-2.2,1.8-3.2,2.1c2.7-3.1,4.7-7.2,4.7-11.4c0-6.3-4.5-11.2-10.8-11.7c-1.7-0.1-5.5,0.2-6.6,1.6
		C104.4,191.2,106.1,189.1,108.6,188.5z"/>
	<path class="st2" d="M117.8,215.3c0,0,13.4-5,20.3-14.9c0,0-6.8,3.3-12.8,3C125.2,203.4,123.6,211.6,117.8,215.3z"/>
	<path class="st2" d="M92.5,215.3c0,0-13.4-5-20.3-14.9c0,0,6.8,3.3,12.8,3C85,203.4,86.7,211.6,92.5,215.3z"/>
	<path class="st2" d="M107.8,210.8c0.6-1.8,0.7-6.1-2.7-5.7c-3.5-0.3-3.3,3.9-2.7,5.7c0.7,2.4-3.6,5-3.6,4.8l0,0.1l6.3,1.3l6.3-1.3
		l0-0.1C111.4,215.8,107.1,213.2,107.8,210.8z"/>
	<path class="st8" d="M81.2,91.8c1.8,2.2,3.5,4.4,4.9,6.9c0-2.3-0.1-4.6,0-6.8c2.6,1.6,4.7,5.5,7.8,6.1c0.1-1.5,0.1-3.2,0.2-4.6
		c3.4,2.1,11.7,8,11.3-0.1c3.1,0.9,5.6,4.6,9.1,5.2c0-0.6,0.2-1.4,0.1-2.1c2.2,0,6.9,5.3,7,0.4c2.9,0.2,8.9,4.3,11,6.1
		c2.9,2.4,6.4,5.5,8.2,8.8c0.5-1.6,0-3.6-0.1-5.6c1.2,2.6,3.7,6.4,6.6,6.9c0,0-0.6-0.9-0.7-1.1c0.1,1.2,0.3,1.6,0.8,2.8
		c-0.3-4-3-8.8-5.6-11.7c0,0.3,0,0.8-0.1,1.2c-0.3-1.5-1.1-2.4-2.1-3.3c-0.1,1-0.8,2.2-0.6,3.4c-1.1-2.9-2.8-5.9-4.4-8.6
		c-0.2,0.8-0.8,1.7-0.8,2.9c-0.4-2.6-1.7-5.1-3.9-6.4c-0.1,0.5-0.4,1.1-0.5,1.7c-1.1-1.5-1.9-3.8-4.2-3.4c-0.2,0.7-0.8,1.3-0.9,1.7
		c-1.6-0.9-2.7-2.4-4.4-3.1c0.1,0.9-0.3,2.1-0.1,3c-2.5-1.2-4.9-4.1-7.7-2.2c-2.2-2.5-5.9-4.4-9.2-4.8c-0.7,2.6,1.4,4.9,3.3,6.6
		c-2.9-2.3-6.2-4.3-9.5-6c-0.3,3.9-4,1.1-5.4,3.8c-2.2-1.1-4.8-2.2-6.6,0c-5.6-4.7-6,3.1-2.5,4.9"/>
</g>
</svg>
