<?xml version="1.0" encoding="utf-8"?>
<!-- Generator: Adobe Illustrator 23.1.0, SVG Export Plug-In . SVG Version: 6.00 Build 0)  -->
<svg version="1.1" id="Слой_1" xmlns="http://www.w3.org/2000/svg" xmlns:xlink="http://www.w3.org/1999/xlink" x="0px" y="0px"
	 viewBox="0 0 208.7 296" style="enable-background:new 0 0 208.7 296;" xml:space="preserve">
<style type="text/css">
	.st0{fill:#DDB09B;}
	.st1{fill:#C9C8C8;}
	.st2{fill:#FFFFFF;}
	.st3{fill:#DD7E5B;}
	.st4{fill:#AFAFAF;}
	.st5{fill:#001C27;}
	.st6{fill:#00141C;}
	.st7{fill:#370D00;}
</style>
<g>
	<g>
		<rect x="83.3" y="211.8" class="st0" width="39.6" height="20.8"/>
		<path class="st1" d="M94.4,227.8c6.4-0.2,12.6-2.1,17.5-4.9c4-2.3,7.2-5,9.6-8.2c0.5-0.6,1-1.3,1.5-2.1v-0.7H83.3v15.6
			C87,227.7,90.8,227.9,94.4,227.8z"/>
	</g>
	<path class="st0" d="M103.1,94.9L103.1,94.9C103.1,94.9,103.1,94.9,103.1,94.9C103.1,94.9,103.1,94.9,103.1,94.9L103.1,94.9
		c-25.3,0.7-44.6,11.1-44.5,46.9c0.1,21.2,2,27.5,8.2,51.7c4.3,16.8,27.1,25.6,35.8,26.2c0.2,0,0.4,0,0.6,0c0.2,0,0.4,0,0.6,0
		c8.7-0.6,31.5-9.4,35.8-26.2c6.2-24.2,8.1-30.5,8.2-51.7C147.7,106,128.4,95.7,103.1,94.9z"/>
	<path class="st0" d="M142.8,156.6l-2.8,21.2c10.9,4.8,12.6-20.1,12.6-20.1C150.1,151.4,142.8,156.6,142.8,156.6z"/>
	<path class="st0" d="M52.3,157.6c0,0,1.7,24.9,12.6,20.1l-2.8-21.2C62.1,156.6,54.9,151.4,52.3,157.6z"/>
	<path class="st0" d="M123.3,232.6l53.5,13.9c0,0,18.2,2.8,22.9,19.2l8,29.7H103.7h-0.9H-1.2l8-29.7c4.7-16.4,22.9-19.2,22.9-19.2
		L83,232.6H123.3z"/>
	<path class="st2" d="M-1.2,295.4l8-29.7c4.7-16.4,22.9-19.2,22.9-19.2L83,232.6h40.3l53.5,13.9c0,0,18.2,2.8,22.9,19.2l8,29.7"/>
	<g>
		<polygon class="st3" points="106.6,232.6 103.3,232.6 103.1,232.6 99.8,232.6 90,248.1 98.7,257.9 103.1,257.9 103.3,257.9 
			107.7,257.9 116.4,248.1 		"/>
		<path class="st4" d="M108.1,256c-5.7-6-8.1-15.2-6.7-23.4h-1.6L90,248.1l8.8,9.9h8.9l1.1-1.2C108.5,256.5,108.3,256.3,108.1,256z"
			/>
	</g>
	<g>
		<polygon class="st4" points="123,222.9 103.1,233.3 116.2,253.1 140,238.7 		"/>
		<polygon class="st2" points="123,222.9 103.1,233.3 116.4,250.5 138.7,237.5 		"/>
	</g>
	<g>
		<polygon class="st4" points="83.2,222.2 103.1,232.6 90,252.4 66.2,238.1 		"/>
		<polygon class="st2" points="83.2,222.2 103.2,232.6 89.8,249.8 67.5,236.9 		"/>
	</g>
	<path class="st5" d="M67.8,236.6l-38.1,9.9c0,0-18.2,2.8-22.9,19.2l-8,29.7h208.8l-8-29.7c-4.7-16.4-22.9-19.2-22.9-19.2
		l-39.9-11.4L103.1,294L67.8,236.6z"/>
	<polygon class="st3" points="98.6,257.9 93.8,279 103.1,294 111.7,279 107.5,257.9 	"/>
	<polygon class="st6" points="67.8,236.6 49.7,241.3 59.9,245.3 53.6,252.4 90,295.4 104.1,295.4 	"/>
	<polygon class="st6" points="136.9,235.1 156.7,240.8 146.5,245.3 152.8,252.4 116.4,295.4 102.3,295.4 	"/>
	<path class="st7" d="M49.7,113.2c0,0,0.9-4.3,6.5-2.4c0,0-4.7,9.5,3,45.9l4,23.8l3.3,2.1l-3.3-33.4l5.6-13.3
		c31-9.5,36.6-23.4,36.6-23.4c37,0.8,32,26.4,32,26.4l5.4,11.5l-3.3,33.4l3.3-2.1l3.9-23.8c6-13.1,2.4-43.4,2.4-43.4
		s-4.5-12.4-14.1-13.8c0,0-1.5-18.8-33.9-20.3C101.2,80.4,55.9,83.6,49.7,113.2z"/>
</g>
</svg>
